<svg width="24" height="24" viewBox="0 0 24 24" fill="none" xmlns="http://www.w3.org/2000/svg">
<path d="M6.13835 19.6212H7.31085V22.0053H6.13835V19.6212Z" fill="#A5ADBC"/>
<path d="M2.03459 4.33966V22.0053H4.96584V18.4487H8.48334V22.0053H11.4537V4.33966L6.72459 1.99466L2.03459 4.33966ZM8.48334 6.72374H9.65584V7.89624H8.48334V6.72374ZM8.48334 9.06874H9.65584V10.2412H8.48334V9.06874ZM8.48334 11.4137H9.65584V12.5862H8.48334V11.4137ZM8.48334 13.7587H9.65584V14.9312H8.48334V13.7587ZM8.48334 16.1037H9.65584V17.2762H8.48334V16.1037ZM4.96584 17.2762H3.79334V16.1037H4.96584V17.2762ZM4.96584 14.9312H3.79334V13.7587H4.96584V14.9312ZM4.96584 12.5862H3.79334V11.4137H4.96584V12.5862ZM4.96584 10.2412H3.79334V9.06874H4.96584V10.2412ZM4.96584 7.89624H3.79334V6.72374H4.96584V7.89624ZM7.31084 17.2762H6.13834V16.1037H7.31084V17.2762ZM7.31084 14.9312H6.13834V13.7587H7.31084V14.9312ZM7.31084 12.5862H6.13834V11.4137H7.31084V12.5862ZM7.31084 10.2412H6.13834V9.06874H7.31084V10.2412ZM7.31084 7.89624H6.13834V6.72374H7.31084V7.89624Z" fill="#A5ADBC"/>
<path d="M16.6892 19.6212H17.8617V22.0053H16.6892V19.6212Z" fill="#A5ADBC"/>
<path d="M15.5167 18.4487H19.0342V22.0053H21.9654V11.4137L17.2754 9.06873L12.5463 11.4137V22.0053H15.5167V18.4487ZM19.0342 13.7587H20.2067V14.9312H19.0342V13.7587ZM19.0342 16.1037H20.2067V17.2762H19.0342V16.1037ZM16.6892 13.7587H17.8617V14.9312H16.6892V13.7587ZM16.6892 16.1037H17.8617V17.2762H16.6892V16.1037ZM14.3442 13.7587H15.5167V14.9312H14.3442V13.7587ZM14.3442 16.1037H15.5167V17.2762H14.3442V16.1037Z" fill="#A5ADBC"/>
</svg>
