<svg width="16" height="16" viewBox="0 0 16 16" fill="none" xmlns="http://www.w3.org/2000/svg">
<path d="M4.09229 13.0808H4.87395V14.6702H4.09229V13.0808Z" fill="#FFB23E"/>
<path d="M1.35645 2.89312V14.6702H3.31061V12.2992H5.65561V14.6702H7.63583V2.89312L4.48311 1.32979L1.35645 2.89312ZM5.65561 4.48251H6.43728V5.26418H5.65561V4.48251ZM5.65561 6.04584H6.43728V6.82751H5.65561V6.04584ZM5.65561 7.60918H6.43728V8.39084H5.65561V7.60918ZM5.65561 9.17251H6.43728V9.95418H5.65561V9.17251ZM5.65561 10.7358H6.43728V11.5175H5.65561V10.7358ZM3.31061 11.5175H2.52895V10.7358H3.31061V11.5175ZM3.31061 9.95418H2.52895V9.17251H3.31061V9.95418ZM3.31061 8.39084H2.52895V7.60918H3.31061V8.39084ZM3.31061 6.82751H2.52895V6.04584H3.31061V6.82751ZM3.31061 5.26418H2.52895V4.48251H3.31061V5.26418ZM4.87395 11.5175H4.09228V10.7358H4.87395V11.5175ZM4.87395 9.95418H4.09228V9.17251H4.87395V9.95418ZM4.87395 8.39084H4.09228V7.60918H4.87395V8.39084ZM4.87395 6.82751H4.09228V6.04584H4.87395V6.82751ZM4.87395 5.26418H4.09228V4.48251H4.87395V5.26418Z" fill="#FFB23E"/>
<path d="M11.1262 13.0808H11.9079V14.6702H11.1262V13.0808Z" fill="#FFB23E"/>
<path d="M10.3445 12.2992H12.6895V14.6702H14.6436V7.60917L11.517 6.04584L8.36426 7.60917V14.6702H10.3445V12.2992ZM12.6895 9.1725H13.4711V9.95417H12.6895V9.1725ZM12.6895 10.7358H13.4711V11.5175H12.6895V10.7358ZM11.1261 9.1725H11.9078V9.95417H11.1261V9.1725ZM11.1261 10.7358H11.9078V11.5175H11.1261V10.7358ZM9.56281 9.1725H10.3445V9.95417H9.56281V9.1725ZM9.56281 10.7358H10.3445V11.5175H9.56281V10.7358Z" fill="#FFB23E"/>
</svg>
