<svg width="16" height="16" viewBox="0 0 16 16" fill="none" xmlns="http://www.w3.org/2000/svg">
<path d="M5.55539 7.2H3.92576V8.8H5.55539V7.2ZM8.81465 7.2H7.18502V8.8H8.81465V7.2ZM12.0739 7.2H10.4443V8.8H12.0739V7.2ZM13.7035 1.6H12.8887V0H11.2591V1.6H4.74058V0H3.11095V1.6H2.29613C1.39169 1.6 0.674652 2.32 0.674652 3.2L0.666504 14.4C0.666504 14.8243 0.838196 15.2313 1.14381 15.5314C1.44943 15.8314 1.86393 16 2.29613 16H13.7035C14.5998 16 15.3332 15.28 15.3332 14.4V3.2C15.3332 2.32 14.5998 1.6 13.7035 1.6ZM13.7035 14.4H2.29613V5.6H13.7035V14.4Z" fill="#FFB23E"/>
</svg>
