<svg width="140" height="140" viewBox="0 0 140 140" fill="none" xmlns="http://www.w3.org/2000/svg">
<circle cx="70" cy="70" r="70" fill="#F1F1F1"/>
<path d="M51.8215 61.2371C51.8745 57.7211 50.8836 54.2684 48.9743 51.3156C47.065 48.3628 44.3229 46.0425 41.0949 44.6481C37.8668 43.2537 34.2978 42.8478 30.8391 43.4818C27.3804 44.1158 24.1873 45.7611 21.6637 48.2098C19.1401 50.6585 17.3993 53.8006 16.6615 57.2386C15.9236 60.6767 16.2218 64.2563 17.5184 67.5249C18.815 70.7935 21.0517 73.6042 23.9456 75.6016C26.8396 77.5989 30.2609 78.6933 33.7768 78.7463C36.1113 78.7814 38.4299 78.3564 40.6002 77.4955C42.7704 76.6346 44.7498 75.3547 46.4254 73.7288C48.101 72.103 49.44 70.163 50.3658 68.0196C51.2917 65.8763 51.7863 63.5716 51.8215 61.2371" fill="#6294F3"/>
<path d="M126.177 57.0263C126.246 52.4563 124.982 47.9689 122.546 44.1315C120.109 40.2941 116.61 37.2792 112.489 35.4678C108.369 33.6565 103.813 33.1302 99.3971 33.9555C94.9816 34.7807 90.9048 36.9205 87.6824 40.1042C84.4599 43.2878 82.2365 47.3724 81.2934 51.8414C80.3503 56.3104 80.7297 60.9631 82.3837 65.2111C84.0378 69.4591 86.8921 73.1116 90.5859 75.7067C94.2796 78.3019 98.6467 79.7231 103.135 79.7907C109.154 79.8814 114.963 77.5339 119.284 73.2647C123.605 68.9956 126.084 63.1544 126.177 57.0263" fill="#6294F3"/>
<path d="M99.4223 48.9887C99.5138 42.9091 97.7788 36.9385 94.4366 31.8319C91.0943 26.7254 86.295 22.7123 80.6455 20.3001C74.996 17.8879 68.7501 17.185 62.6976 18.2802C56.645 19.3754 51.0577 22.2195 46.6422 26.4529C42.2267 30.6864 39.1813 36.119 37.8911 42.0637C36.601 48.0085 37.124 54.1984 39.394 59.8507C41.664 65.503 45.5791 70.3639 50.6442 73.8186C55.7092 77.2733 61.6968 79.1668 67.8497 79.2594C76.1005 79.3837 84.0621 76.2643 89.9831 70.5874C95.9041 64.9105 99.2995 57.1413 99.4223 48.9887V48.9887Z" fill="#6294F3"/>
<path d="M100.82 54.5662L34.1567 53.5622L33.7774 78.7462L100.441 79.7502L100.82 54.5662Z" fill="#6294F3"/>
<g clip-path="url(#clip0)">
<path d="M26.462 64.905L70.1148 34.139L113.768 64.905H26.462Z" fill="#FFD233"/>
<path d="M113.768 64.905L78.1019 92.9525H70.1148H62.1278L26.462 64.905H113.768Z" fill="#D14C16"/>
<path d="M101.012 42.7389H52.4067C48.9227 42.7389 45.5813 44.1159 43.1178 46.5669C40.6542 49.0179 39.2701 52.3423 39.2701 55.8086V121H101.012V42.7389Z" fill="#E7DBC8"/>
<path d="M101.012 42.7389H52.4067C48.9227 42.7389 45.5813 44.1159 43.1178 46.5669C40.6542 49.0179 39.2701 52.3423 39.2701 55.8086V61.3762H101.012V42.7389Z" fill="#BEB2A0"/>
<path d="M26.462 121L62.1278 92.9525L26.462 64.905V121Z" fill="#F3C600"/>
<path d="M113.767 121L78.1016 92.9525L113.767 64.905V121Z" fill="#F3C600"/>
<path d="M26.462 121L62.1278 92.9525H78.1019L113.768 121H26.462Z" fill="#F19D00"/>
<path d="M113.058 42.7389H51.3164C54.4918 42.7665 57.5275 44.0418 59.7619 46.2867C61.9962 48.5317 63.248 51.5644 63.2444 54.7238H124.986C124.988 53.1505 124.678 51.5923 124.074 50.1383C123.47 48.6844 122.584 47.363 121.466 46.25C120.349 45.1369 119.022 44.2539 117.561 43.6514C116.1 43.049 114.534 42.7389 112.953 42.7389H113.058Z" fill="#FAF0DF"/>
<path d="M39.2176 74.9294L26.462 64.905L39.2176 73.6225V74.9294ZM100.959 74.9294V73.6225L113.715 64.8658L100.959 74.8902" fill="#9F3E16"/>
<path d="M78.1019 92.9525H62.1278L39.2177 74.9294V73.6224L63.2444 90.0641H77.1035L84.5913 84.9408C85.765 84.5116 86.8094 83.7919 87.6259 82.8496L101.012 73.7009V75.0078L78.1019 92.9525Z" fill="#AFA89A"/>
<path d="M62.1278 92.9525L26.462 64.905L39.2176 74.9295L62.1278 92.9525Z" fill="#B99916"/>
<path d="M78.1016 92.9525L101.012 74.9295L113.767 64.905L78.1016 92.9525Z" fill="#B99916"/>
<path d="M84.5914 84.9408L87.626 82.8497C86.8095 83.792 85.7651 84.5117 84.5914 84.9408" fill="#2570AA"/>
<path d="M79.6583 85.2894V107.029H61.5453V85.2894H52.0327L70.599 62.6878L89.1709 85.2894H79.6583Z" fill="#2DA623" stroke="white" stroke-width="3" stroke-linejoin="round"/>
</g>
<defs>
<clipPath id="clip0">
<rect width="98.6293" height="86.861" fill="white" transform="translate(26.462 34.139)"/>
</clipPath>
</defs>
</svg>
