<svg width="140" height="140" viewBox="0 0 140 140" fill="none" xmlns="http://www.w3.org/2000/svg">
<circle cx="70" cy="70" r="70" fill="#F1F1F1"/>
<g clip-path="url(#clip0)">
<path d="M113.413 51.5691H26.5865C23.7323 51.5691 21.4185 53.8838 21.4185 56.7391V114.342C21.4185 117.198 23.7323 119.512 26.5865 119.512H113.413C116.268 119.512 118.581 117.198 118.581 114.342V56.7391C118.581 53.8838 116.268 51.5691 113.413 51.5691Z" fill="#6A4B93"/>
<path fill-rule="evenodd" clip-rule="evenodd" d="M9.57202 113.938V115.197C9.57202 117.94 12.4516 120.157 15.9987 120.157H123.997C127.548 120.157 130.428 117.936 130.428 115.197V113.938H9.57202Z" fill="#DCEDFF"/>
<path fill-rule="evenodd" clip-rule="evenodd" d="M25.2097 55.8997V108.634H114.321V60.2952H25.2097V55.8997Z" fill="#E7F3FF"/>
<path d="M114.321 55.8997H25.2097V60.2952H114.321V55.8997Z" fill="#C5E2FF"/>
<path fill-rule="evenodd" clip-rule="evenodd" d="M127.06 121.237C126.152 121.729 125.137 121.991 124.104 122C125.137 121.991 126.152 121.729 127.06 121.237V121.237ZM127.091 121.237H127.06H127.091Z" fill="#535671"/>
<path fill-rule="evenodd" clip-rule="evenodd" d="M129.81 117.318H10.1897C11.2157 118.993 13.4164 120.149 15.968 120.161H124.104C125.118 120.152 126.122 119.949 127.06 119.562H127.09H127.109H127.128C128.233 119.111 129.17 118.327 129.81 117.318Z" fill="#A5B1C2"/>
<path fill-rule="evenodd" clip-rule="evenodd" d="M9.57202 113.938V115.197C9.57202 117.94 12.4516 120.157 15.9987 120.157H123.997C127.548 120.157 130.428 117.936 130.428 115.197V113.938H9.57202Z" stroke="#6A4B93" stroke-width="3" stroke-linejoin="round"/>
<path d="M93.3476 48.7876L69.998 62.5617L46.6484 48.7876C46.6465 48.775 46.6465 48.7621 46.6484 48.7494C46.6484 48.6617 47.9566 47.6048 49.9208 45.987L49.9742 45.9412C56.4238 40.7063 69.9942 29.9808 69.9942 29.9808C69.9942 29.9808 83.5646 40.7063 90.0141 45.9412C92.0089 47.5628 93.3209 48.6579 93.34 48.7494C93.3444 48.7617 93.347 48.7746 93.3476 48.7876Z" fill="#7A4C08" stroke="#6A4B93" stroke-width="3" stroke-linejoin="round"/>
<path d="M79.6018 18.5724H54.41C53.3722 18.5724 52.3768 18.9848 51.643 19.719C50.9091 20.4531 50.4968 21.4489 50.4968 22.4871V60.5929C50.4968 61.1068 50.5981 61.6156 50.7948 62.0904C50.9915 62.5651 51.2798 62.9964 51.6432 63.3596C52.0066 63.7229 52.4381 64.0109 52.9128 64.2072C53.3876 64.4035 53.8963 64.5043 54.41 64.5038H85.9751C86.4888 64.5043 86.9976 64.4035 87.4723 64.2072C87.9471 64.0109 88.3785 63.7229 88.7419 63.3596C89.1054 62.9964 89.3937 62.5651 89.5904 62.0904C89.7871 61.6156 89.8883 61.1068 89.8883 60.5929V28.8629M79.6018 18.5724L79.2482 18.9259L79.3947 19.0724M79.6018 18.5724V19.0724H79.3947M79.6018 18.5724L89.8883 28.8629M79.3947 19.0724H54.41C53.5049 19.0724 52.6367 19.4321 51.9966 20.0725C51.3565 20.7128 50.9968 21.5814 50.9968 22.4871V60.5929C50.9968 61.0411 51.0851 61.4849 51.2567 61.899C51.4283 62.3131 51.6797 62.6892 51.9967 63.006C52.3136 63.3228 52.6899 63.5739 53.1039 63.7451C53.5179 63.9163 53.9616 64.0042 54.4096 64.0038H54.41H85.9751H85.9756C86.4236 64.0042 86.8673 63.9163 87.2813 63.7451C87.6953 63.5739 88.0715 63.3228 88.3885 63.006C88.7054 62.6892 88.9569 62.3131 89.1285 61.899C89.3 61.4849 89.3883 61.0411 89.3883 60.5929V29.0699M79.3947 19.0724L89.3883 29.0699M89.3883 29.0699L89.5347 29.2164L89.8883 28.8629M89.3883 29.0699V28.8629H89.8883" fill="white" stroke="#6A4B93"/>
<path d="M79.602 24.9481C79.602 25.9864 80.0143 26.9821 80.7482 27.7163C81.482 28.4504 82.4774 28.8629 83.5152 28.8629H89.8885L79.5906 18.5609L79.602 24.9481Z" fill="#E6E8E8" stroke="#6A4B93" stroke-width="3" stroke-linejoin="round"/>
<path d="M67.6675 25.0129H58.2468C57.6781 25.0129 57.217 25.4742 57.217 26.0431V35.4675C57.217 36.0365 57.6781 36.4977 58.2468 36.4977H67.6675C68.2363 36.4977 68.6973 36.0365 68.6973 35.4675V26.0431C68.6973 25.4742 68.2363 25.0129 67.6675 25.0129Z" fill="#FFD233" stroke="#A5ADBC" stroke-width="3" stroke-miterlimit="10"/>
<path d="M78.446 39.6874H57.5908C57.2934 39.6874 57.0082 39.8056 56.7979 40.016C56.5876 40.2264 56.4695 40.5117 56.4695 40.8092V40.8092C56.4744 41.1056 56.5939 41.3884 56.8031 41.5984C57.0122 41.8083 57.2946 41.9289 57.5908 41.9348H78.446C78.7428 41.9328 79.0266 41.8132 79.2354 41.6022C79.4441 41.3912 79.5608 41.1061 79.5597 40.8092V40.8092C79.5597 40.513 79.4427 40.2288 79.234 40.0187C79.0254 39.8085 78.7421 39.6895 78.446 39.6874Z" fill="#A5ADBC"/>
<path d="M78.446 45.2849H57.5908C57.2934 45.2849 57.0082 45.4031 56.7979 45.6135C56.5876 45.8238 56.4695 46.1092 56.4695 46.4067V46.4067C56.4694 46.7063 56.5868 46.9941 56.7965 47.2081C57.0061 47.4221 57.2913 47.5453 57.5908 47.5513H78.446C78.5953 47.5514 78.743 47.5216 78.8805 47.4638C79.0181 47.406 79.1427 47.3213 79.2472 47.2147C79.3516 47.1081 79.4337 46.9817 79.4887 46.843C79.5437 46.7042 79.5704 46.5559 79.5674 46.4067V46.4067C79.5674 46.1092 79.4492 45.8238 79.2389 45.6135C79.0287 45.4031 78.7434 45.2849 78.446 45.2849V45.2849Z" fill="#A5ADBC"/>
<path d="M68.9758 50.7144H57.5908C57.2934 50.7144 57.0082 50.8326 56.7979 51.043C56.5876 51.2533 56.4695 51.5387 56.4695 51.8362V51.8362C56.4695 52.1337 56.5876 52.419 56.7979 52.6294C57.0082 52.8398 57.2934 52.958 57.5908 52.958H68.9758C69.2732 52.958 69.5584 52.8398 69.7687 52.6294C69.9789 52.419 70.0971 52.1337 70.0971 51.8362C70.0971 51.5387 69.9789 51.2533 69.7687 51.043C69.5584 50.8326 69.2732 50.7144 68.9758 50.7144V50.7144Z" fill="#A5ADBC"/>
<path d="M93.3516 48.7838V71.1924C93.3496 71.9467 93.0491 72.6695 92.516 73.2029C91.9828 73.7362 91.2603 74.0367 90.5063 74.0388H49.49C48.7367 74.0367 48.015 73.736 47.483 73.2024C46.9511 72.6688 46.6523 71.946 46.6523 71.1924V48.7838L70.002 62.5578L93.3516 48.7838Z" fill="#FFB031"/>
<path d="M79.6018 18.5724H54.41C53.3722 18.5724 52.3768 18.9848 51.643 19.719C50.9091 20.4531 50.4968 21.4489 50.4968 22.4871V60.5929C50.4968 61.1068 50.5981 61.6156 50.7948 62.0904C50.9915 62.5651 51.2798 62.9964 51.6432 63.3596C52.0066 63.7229 52.4381 64.0109 52.9128 64.2072C53.3876 64.4035 53.8963 64.5043 54.41 64.5038H85.9751C86.4888 64.5043 86.9976 64.4035 87.4723 64.2072C87.9471 64.0109 88.3785 63.7229 88.7419 63.3596C89.1054 62.9964 89.3937 62.5651 89.5904 62.0904C89.7871 61.6156 89.8883 61.1068 89.8883 60.5929V28.8629L79.6018 18.5724Z" stroke="#6A4B93" stroke-width="3" stroke-linejoin="round"/>
<path d="M93.3516 48.7838V71.1924C93.3496 71.9467 93.0491 72.6695 92.516 73.2029C91.9828 73.7362 91.2603 74.0367 90.5063 74.0388H49.49C48.7367 74.0367 48.015 73.736 47.483 73.2024C46.9511 72.6688 46.6523 71.946 46.6523 71.1924V48.7838L70.002 62.5578L93.3516 48.7838Z" fill="#FFD233"/>
<path d="M92.5618 73.1497L77.5306 58.1165L70.0017 62.5578L62.4651 58.1127L47.4377 73.1459C47.7002 73.4277 48.0178 73.6524 48.3708 73.8061C48.7238 73.9597 49.1047 74.0389 49.4897 74.0388H90.506C90.8911 74.0383 91.272 73.9592 91.6255 73.8064C91.979 73.6535 92.2976 73.4301 92.5618 73.1497V73.1497Z" fill="#FFB23E"/>
<path d="M93.3516 48.7838V71.1924C93.3496 71.9467 93.0491 72.6695 92.516 73.2029C91.9828 73.7362 91.2603 74.0367 90.5063 74.0388H49.49C48.7367 74.0367 48.015 73.736 47.483 73.2024C46.9511 72.6688 46.6523 71.946 46.6523 71.1924V48.7838L70.002 62.5578L93.3516 48.7838Z" stroke="#6A4B93" stroke-width="3" stroke-linejoin="bevel"/>
<path d="M76.0966 91.8649V77.3278H63.9031V91.8649H57.4993L69.9979 106.978L82.5004 91.8649H76.0966Z" fill="#F34D4D" stroke="#6A4B93" stroke-width="3" stroke-linejoin="round"/>
</g>
<defs>
<clipPath id="clip0">
<rect width="122" height="104" fill="white" transform="translate(9 18)"/>
</clipPath>
</defs>
</svg>
