<svg width="140" height="140" viewBox="0 0 140 140" fill="none" xmlns="http://www.w3.org/2000/svg">
<circle cx="70" cy="70" r="70" fill="#F1F1F1"/>
<g clip-path="url(#clip0)">
<path d="M102.43 18.0022L29.9049 27.6031L41.7748 117.775L114.3 108.174L102.43 18.0022Z" fill="#5D3C87"/>
<path d="M38.4812 23.9798L32.5808 114.742L105.58 119.514L111.481 28.7523L38.4812 23.9798Z" fill="#FFD233"/>
<path d="M98.6629 23.1736L25.999 31.6564L36.4865 122.001L109.15 113.518L98.6629 23.1736Z" fill="white"/>
<path fill-rule="evenodd" clip-rule="evenodd" d="M32.4237 37.4896L45.8172 35.926L47.3764 49.3573L33.9829 50.9209L32.4237 37.4896ZM33.892 38.6549L35.1449 49.4484L45.9081 48.1919L44.6551 37.3984L33.892 38.6549Z" fill="#333333"/>
<path fill-rule="evenodd" clip-rule="evenodd" d="M44.6061 41.1522L38.606 47.6049L35.3594 43.2375L36.9517 42.0471L38.7762 44.5014L43.1535 39.7939L44.6061 41.1522Z" fill="#6A4B93"/>
<path d="M92.8317 32.8113L50.3447 37.7712L50.4932 39.0506L92.9802 34.0906L92.8317 32.8113Z" fill="#999999"/>
<path d="M93.2737 36.6151L50.7867 41.5751L50.9353 42.8544L93.4222 37.8945L93.2737 36.6151Z" fill="#999999"/>
<path d="M73.4677 42.6431L51.2115 45.2413L51.3601 46.5207L73.6163 43.9225L73.4677 42.6431Z" fill="#999999"/>
<path fill-rule="evenodd" clip-rule="evenodd" d="M34.2395 53.1276L47.633 51.5641L49.1922 64.9954L35.7987 66.5589L34.2395 53.1276ZM35.7078 54.293L36.9607 65.0865L47.7239 63.83L46.4709 53.0365L35.7078 54.293Z" fill="#333333"/>
<path fill-rule="evenodd" clip-rule="evenodd" d="M46.4219 56.7887L40.4218 63.2414L37.1752 58.8741L38.7675 57.6837L40.592 60.1379L44.9693 55.4304L46.4219 56.7887Z" fill="#6A4B93"/>
<path d="M94.6472 48.4495L52.1602 53.4094L52.3087 54.6888L94.7957 49.7288L94.6472 48.4495Z" fill="#999999"/>
<path d="M95.0877 52.2514L52.6007 57.2114L52.7492 58.4907L95.2362 53.5308L95.0877 52.2514Z" fill="#999999"/>
<path d="M75.2818 58.2795L53.0256 60.8777L53.1741 62.157L75.4303 59.5588L75.2818 58.2795Z" fill="#999999"/>
<path fill-rule="evenodd" clip-rule="evenodd" d="M36.0533 68.764L49.4468 67.2005L51.006 80.6318L37.6125 82.1953L36.0533 68.764ZM37.5216 69.9294L38.7746 80.7229L49.5377 79.4664L48.2848 68.6729L37.5216 69.9294Z" fill="#333333"/>
<path fill-rule="evenodd" clip-rule="evenodd" d="M48.2361 72.425L42.2377 78.8779L38.991 74.5105L40.5833 73.3201L42.4077 75.7742L46.7833 71.067L48.2361 72.425Z" fill="#6A4B93"/>
<path d="M96.4614 64.0858L53.9744 69.0457L54.1229 70.325L96.6099 65.3651L96.4614 64.0858Z" fill="#999999"/>
<path d="M96.9035 67.8879L54.4165 72.8478L54.565 74.1272L97.052 69.1672L96.9035 67.8879Z" fill="#999999"/>
<path d="M77.0975 73.9159L54.8413 76.5141L54.9898 77.7934L77.246 75.1952L77.0975 73.9159Z" fill="#999999"/>
<path fill-rule="evenodd" clip-rule="evenodd" d="M37.8707 84.4005L51.2642 82.837L52.8236 96.2699L39.4301 97.8335L37.8707 84.4005ZM39.339 85.5659L40.5922 96.361L51.3553 95.1045L50.1022 84.3094L39.339 85.5659Z" fill="#333333"/>
<path fill-rule="evenodd" clip-rule="evenodd" d="M50.0515 88.0616L44.0532 94.5145L40.8064 90.147L42.3987 88.9566L44.2231 91.4107L48.5988 86.7035L50.0515 88.0616Z" fill="#6A4B93"/>
<path d="M98.2769 79.7223L55.7899 84.6822L55.9384 85.9615L98.4254 81.0016L98.2769 79.7223Z" fill="#999999"/>
<path d="M98.7175 83.5262L56.2305 88.4861L56.379 89.7655L98.866 84.8055L98.7175 83.5262Z" fill="#999999"/>
<path d="M78.9133 89.5524L56.6571 92.1506L56.8056 93.4299L79.0618 90.8317L78.9133 89.5524Z" fill="#999999"/>
<path fill-rule="evenodd" clip-rule="evenodd" d="M39.6848 100.039L53.0783 98.4751L54.6375 111.906L41.244 113.47L39.6848 100.039ZM41.1531 101.204L42.4061 111.998L53.1692 110.741L51.9162 99.9476L41.1531 101.204Z" fill="#333333"/>
<path fill-rule="evenodd" clip-rule="evenodd" d="M51.867 103.698L45.8686 110.151L42.6218 105.784L44.2141 104.593L46.0385 107.047L50.4142 102.34L51.867 103.698Z" fill="#6A4B93"/>
<path d="M100.093 95.3588L57.6057 100.319L57.7542 101.598L100.241 96.6381L100.093 95.3588Z" fill="#999999"/>
<path d="M100.533 99.161L58.0463 104.121L58.1948 105.4L100.682 100.44L100.533 99.161Z" fill="#999999"/>
<path d="M80.727 105.191L58.4708 107.789L58.6193 109.068L80.8755 106.47L80.727 105.191Z" fill="#999999"/>
</g>
<defs>
<clipPath id="clip0">
<rect width="88.3019" height="104" fill="white" transform="translate(26 18)"/>
</clipPath>
</defs>
</svg>
