<svg width="16" height="16" viewBox="0 0 16 16" fill="none" xmlns="http://www.w3.org/2000/svg">
<path d="M1.90585 1.91782L10.2859 0.721151C10.3331 0.714367 10.3813 0.717828 10.4272 0.731301C10.473 0.744774 10.5154 0.767944 10.5515 0.79924C10.5876 0.830535 10.6166 0.869226 10.6364 0.91269C10.6563 0.956153 10.6665 1.00337 10.6665 1.05115V14.9485C10.6665 14.9962 10.6563 15.0434 10.6365 15.0868C10.6167 15.1302 10.5878 15.1688 10.5517 15.2001C10.5157 15.2314 10.4734 15.2546 10.4276 15.2681C10.3819 15.2816 10.3338 15.2852 10.2865 15.2785L1.90519 14.0818C1.74627 14.0592 1.60085 13.98 1.49565 13.8587C1.39044 13.7375 1.33252 13.5823 1.33252 13.4218V2.57782C1.33252 2.41729 1.39044 2.26216 1.49565 2.14091C1.60085 2.01967 1.74627 1.94045 1.90519 1.91782H1.90585ZM11.3332 1.99982H13.9999C14.1767 1.99982 14.3462 2.07006 14.4713 2.19508C14.5963 2.3201 14.6665 2.48967 14.6665 2.66648V13.3332C14.6665 13.51 14.5963 13.6795 14.4713 13.8046C14.3462 13.9296 14.1767 13.9998 13.9999 13.9998H11.3332V1.99982ZM6.79985 7.99982L8.66652 5.33315H7.06652L5.99985 6.85715L4.93319 5.33315H3.33319L5.19985 7.99982L3.33319 10.6665H4.93319L5.99985 9.14248L7.06652 10.6665H8.66652L6.79985 7.99982Z" fill="#FFB23E"/>
</svg>
