<svg width="24" height="24" viewBox="0 0 24 24" fill="none" xmlns="http://www.w3.org/2000/svg">
<path d="M4.81812 11.6619L11.8937 4.81375C11.9947 4.71584 12.1111 4.66669 12.2428 4.66669C12.3742 4.66669 12.4905 4.71584 12.5917 4.81375L13.351 5.54853C13.4522 5.64648 13.5027 5.75901 13.5027 5.88656C13.5027 6.01411 13.4522 6.12663 13.351 6.22458L7.38386 12.0001L13.3509 17.7758C13.4521 17.8737 13.5026 17.9865 13.5026 18.1137C13.5026 18.2412 13.4521 18.3539 13.3509 18.4518L12.5917 19.1864C12.4905 19.2845 12.3742 19.3333 12.2427 19.3333C12.1109 19.3333 11.9946 19.2844 11.8937 19.1864L4.81812 12.3382C4.71697 12.2403 4.6665 12.1275 4.6665 12.0002C4.6665 11.8728 4.71697 11.7601 4.81812 11.6619Z" fill="#A5ADBC"/>
<path d="M10.4969 12.0002C10.4969 11.8728 10.5472 11.76 10.6488 11.6619L17.7239 4.81375C17.825 4.71584 17.9415 4.66669 18.0731 4.66669C18.2046 4.66669 18.3211 4.71584 18.4223 4.81375L19.1814 5.54858C19.2827 5.64654 19.3333 5.75906 19.3333 5.88661C19.3333 6.01416 19.2827 6.12668 19.1814 6.22463L13.2144 12.0002L19.1814 17.7758C19.2827 17.8737 19.3333 17.9865 19.3333 18.1137C19.3333 18.2412 19.2827 18.3539 19.1814 18.4518L18.4223 19.1864C18.3211 19.2845 18.2047 19.3333 18.0731 19.3333C17.9415 19.3333 17.8251 19.2844 17.7239 19.1864L10.6488 12.3382C10.5472 12.2403 10.4969 12.1275 10.4969 12.0002Z" fill="#A5ADBC"/>
</svg>
