<svg width="123" height="24" viewBox="0 0 123 24" fill="none" xmlns="http://www.w3.org/2000/svg">
<path d="M46.88 9.152L46.32 11.856L45.152 17.184C45.088 17.4827 44.992 17.696 44.864 17.824C44.736 17.952 44.5387 18.016 44.272 18.016H43.424C43.1573 18.016 42.944 17.9787 42.784 17.904C42.6347 17.8187 42.5227 17.616 42.448 17.296L40.24 7.04C40.1973 6.86933 40.2613 6.784 40.432 6.784H41.984C42.1013 6.784 42.1867 6.8 42.24 6.832C42.304 6.864 42.3467 6.93333 42.368 7.04L43.392 12.816L43.856 15.504H43.952L44.496 12.816L45.584 7.632C45.6373 7.35467 45.728 7.14667 45.856 7.008C45.9947 6.85867 46.2347 6.784 46.576 6.784H47.36C47.6587 6.784 47.8667 6.85867 47.984 7.008C48.112 7.14667 48.2027 7.344 48.256 7.6L49.328 12.816L49.872 15.472H49.968L50.432 12.8L51.472 7.056C51.5147 6.87467 51.632 6.784 51.824 6.784H53.376C53.536 6.784 53.5947 6.86933 53.552 7.04L51.344 17.28C51.2693 17.6 51.1573 17.8027 51.008 17.888C50.8587 17.9733 50.6453 18.016 50.368 18.016H49.552C49.2853 18.016 49.0827 17.9573 48.944 17.84C48.816 17.712 48.7147 17.4933 48.64 17.184L47.504 11.856L46.96 9.152H46.88ZM64.1084 12.352C64.1084 14.208 63.6977 15.6427 62.8764 16.656C62.0657 17.6693 60.8337 18.176 59.1804 18.176C57.5697 18.176 56.3644 17.6907 55.5644 16.72C54.7644 15.7387 54.3644 14.304 54.3644 12.416C54.3644 11.4987 54.4817 10.6827 54.7164 9.968C54.9617 9.25333 55.2977 8.65067 55.7244 8.16C56.1617 7.65867 56.6737 7.28 57.2604 7.024C57.8577 6.75733 58.5137 6.624 59.2284 6.624C60.0284 6.624 60.7324 6.75733 61.3404 7.024C61.959 7.28 62.471 7.65867 62.8764 8.16C63.2817 8.65067 63.5857 9.25333 63.7884 9.968C64.0017 10.672 64.1084 11.4667 64.1084 12.352ZM62.0924 12.416C62.0924 11.8827 62.0497 11.376 61.9644 10.896C61.8897 10.4053 61.7457 9.97333 61.5324 9.6C61.3297 9.22667 61.0417 8.93333 60.6684 8.72C60.3057 8.496 59.8364 8.384 59.2604 8.384C58.7697 8.384 58.343 8.49067 57.9804 8.704C57.6177 8.90667 57.3137 9.18933 57.0684 9.552C56.8337 9.91467 56.6577 10.336 56.5404 10.816C56.423 11.2853 56.3644 11.792 56.3644 12.336C56.3644 12.9547 56.407 13.5147 56.4924 14.016C56.5884 14.5173 56.7484 14.9493 56.9724 15.312C57.1964 15.664 57.4897 15.936 57.8524 16.128C58.2257 16.32 58.6844 16.416 59.2284 16.416C59.7724 16.416 60.2257 16.304 60.5884 16.08C60.9617 15.856 61.2604 15.5627 61.4844 15.2C61.7084 14.8267 61.863 14.4 61.9484 13.92C62.0444 13.44 62.0924 12.9387 62.0924 12.416ZM74.8884 17.664C74.9097 17.7387 74.9044 17.8133 74.8724 17.888C74.8404 17.9627 74.7764 18 74.6804 18H73.2564C73.171 18 73.0857 17.9893 73.0004 17.968C72.915 17.936 72.851 17.8613 72.8084 17.744L72.0404 14.784C71.8804 14.2187 71.651 13.8347 71.3524 13.632C71.0537 13.4293 70.6217 13.328 70.0564 13.328H68.1684V17.664C68.1684 17.8133 68.1417 17.9093 68.0884 17.952C68.0457 17.984 67.9497 18 67.8004 18H66.5524C66.435 18 66.3444 17.9787 66.2804 17.936C66.2164 17.8933 66.1844 17.8027 66.1844 17.664V7.68C66.1844 7.37067 66.2484 7.14133 66.3764 6.992C66.5044 6.84267 66.739 6.768 67.0804 6.768H70.8564C71.3897 6.768 71.875 6.848 72.3124 7.008C72.7497 7.15733 73.123 7.376 73.4324 7.664C73.7417 7.952 73.9764 8.29333 74.1364 8.688C74.307 9.08267 74.3924 9.52 74.3924 10C74.3924 10.6293 74.2377 11.1787 73.9284 11.648C73.6297 12.1067 73.235 12.4373 72.7444 12.64V12.704C73.1177 12.864 73.395 13.0827 73.5764 13.36C73.7577 13.6373 73.9017 13.968 74.0084 14.352L74.8884 17.664ZM72.4084 10.096C72.4084 9.936 72.3817 9.76533 72.3284 9.584C72.2857 9.40267 72.2004 9.232 72.0724 9.072C71.9444 8.912 71.7684 8.784 71.5444 8.688C71.3204 8.58133 71.027 8.528 70.6644 8.528H68.1844V11.696H70.5524C71.203 11.696 71.6724 11.5413 71.9604 11.232C72.259 10.9227 72.4084 10.544 72.4084 10.096ZM81.8558 10.832L85.6638 17.632C85.8024 17.8773 85.7491 18 85.5038 18H84.0798C83.8771 18 83.7331 17.9893 83.6478 17.968C83.5624 17.936 83.4718 17.8347 83.3758 17.664L80.5118 12.448L78.4798 14.944V17.664C78.4798 17.8133 78.4531 17.9093 78.3998 17.952C78.3571 17.984 78.2611 18 78.1118 18H76.9118C76.7944 18 76.7038 17.9787 76.6398 17.936C76.5758 17.8933 76.5438 17.8027 76.5438 17.664V7.136C76.5438 6.99733 76.5758 6.90667 76.6398 6.864C76.7038 6.82133 76.7944 6.8 76.9118 6.8H78.1118C78.2611 6.8 78.3571 6.82133 78.3998 6.864C78.4531 6.896 78.4798 6.98667 78.4798 7.136V12L78.5438 12.032L80.1438 10L82.5758 7.024C82.6398 6.94933 82.7198 6.896 82.8158 6.864C82.9118 6.82133 83.0398 6.8 83.1998 6.8H84.8318C84.9278 6.8 84.9918 6.82667 85.0238 6.88C85.0558 6.93333 85.0398 6.99733 84.9758 7.072L81.8558 10.832ZM94.6278 8.208C94.6278 8.31467 94.6064 8.38933 94.5638 8.432C94.5318 8.47467 94.4571 8.496 94.3398 8.496H91.2998V17.664C91.2998 17.8133 91.2731 17.9093 91.2198 17.952C91.1771 17.984 91.0811 18 90.9318 18H89.6838C89.5558 18 89.4598 17.9787 89.3958 17.936C89.3424 17.8933 89.3158 17.8027 89.3158 17.664V8.496H86.3398C86.2224 8.496 86.1478 8.47467 86.1158 8.432C86.0838 8.38933 86.0678 8.31467 86.0678 8.208V7.104C86.0678 6.98667 86.0838 6.90667 86.1158 6.864C86.1478 6.82133 86.2224 6.8 86.3398 6.8H94.3398C94.4571 6.8 94.5318 6.82133 94.5638 6.864C94.6064 6.90667 94.6278 6.98667 94.6278 7.104V8.208ZM98.1881 17.664C98.1881 17.8133 98.1615 17.9093 98.1081 17.952C98.0548 17.984 97.9535 18 97.8041 18H96.5881C96.4601 18 96.3641 17.9787 96.3001 17.936C96.2468 17.8933 96.2201 17.8027 96.2201 17.664V7.136C96.2201 6.99733 96.2468 6.90667 96.3001 6.864C96.3641 6.82133 96.4601 6.8 96.5881 6.8H97.8041C97.9535 6.8 98.0548 6.82133 98.1081 6.864C98.1615 6.896 98.1881 6.98667 98.1881 7.136V17.664ZM109.915 10.272H109.819L108.97 12.448L107.547 15.984C107.429 16.2613 107.312 16.448 107.195 16.544C107.088 16.64 106.901 16.688 106.635 16.688H105.915C105.648 16.688 105.456 16.64 105.339 16.544C105.232 16.448 105.125 16.2613 105.019 15.984L103.611 12.608L102.747 10.464H102.651V17.664C102.651 17.8133 102.624 17.9093 102.571 17.952C102.517 17.984 102.421 18 102.283 18H101.131C101.013 18 100.923 17.984 100.859 17.952C100.795 17.9093 100.763 17.8133 100.763 17.664V7.76C100.763 7.42933 100.827 7.184 100.955 7.024C101.083 6.864 101.328 6.784 101.691 6.784H102.347C102.624 6.784 102.832 6.832 102.971 6.928C103.109 7.024 103.237 7.216 103.355 7.504L105.259 12.192L106.251 14.672H106.315L107.307 12.176L109.195 7.504C109.312 7.216 109.445 7.024 109.595 6.928C109.744 6.832 109.957 6.784 110.235 6.784H110.843C111.184 6.784 111.424 6.85867 111.563 7.008C111.701 7.15733 111.771 7.39733 111.771 7.728V17.664C111.771 17.8133 111.744 17.9093 111.691 17.952C111.637 17.984 111.541 18 111.403 18H110.267C110.149 18 110.059 17.984 109.995 17.952C109.941 17.9093 109.915 17.8133 109.915 17.664V10.272ZM121.913 17.632C121.913 17.7493 121.891 17.84 121.849 17.904C121.806 17.968 121.715 18 121.577 18H117.017C116.451 18 115.987 17.92 115.625 17.76C115.262 17.6 114.969 17.3867 114.745 17.12C114.531 16.8533 114.382 16.5493 114.297 16.208C114.211 15.8667 114.169 15.5093 114.169 15.136V9.664C114.169 9.29067 114.217 8.93333 114.313 8.592C114.419 8.24 114.585 7.93067 114.809 7.664C115.043 7.39733 115.342 7.184 115.705 7.024C116.067 6.864 116.505 6.784 117.017 6.784H121.481C121.619 6.784 121.705 6.816 121.737 6.88C121.779 6.93333 121.801 7.024 121.801 7.152V8.16C121.801 8.29867 121.779 8.39467 121.737 8.448C121.705 8.49067 121.619 8.512 121.481 8.512H117.225C116.819 8.512 116.531 8.60267 116.361 8.784C116.201 8.96533 116.121 9.22667 116.121 9.568V11.248H120.953C121.091 11.248 121.177 11.2747 121.209 11.328C121.251 11.3813 121.273 11.4827 121.273 11.632V12.512C121.273 12.64 121.251 12.736 121.209 12.8C121.177 12.8533 121.091 12.88 120.953 12.88H116.121V15.216C116.121 15.5573 116.206 15.8187 116.377 16C116.558 16.1707 116.841 16.256 117.225 16.256H121.577C121.726 16.256 121.817 16.2827 121.849 16.336C121.891 16.3893 121.913 16.4907 121.913 16.64V17.632Z" fill="white"/>
<path d="M11.3201 8.0832L9.60489 12.7936L7.14729 19.6032C7.02782 19.8933 6.90836 20.1323 6.78889 20.32C6.66942 20.5077 6.54142 20.6528 6.40489 20.7552C6.26836 20.8576 6.10622 20.9259 5.91849 20.96C5.73076 20.9941 5.51742 21.0112 5.27849 21.0112H3.84489C3.60596 21.0112 3.39262 21.0027 3.20489 20.9856C3.03422 20.9685 2.88062 20.9173 2.74409 20.832C2.62462 20.7467 2.52222 20.6187 2.43689 20.448C2.36862 20.2773 2.32596 20.0299 2.30889 19.7056L1.10569 3.5008C1.07156 3.26187 1.08862 3.1168 1.15689 3.0656C1.24222 3.0144 1.37022 2.9888 1.54089 2.9888H4.45929C4.69822 2.9888 4.86889 3.02293 4.97129 3.0912C5.09076 3.1424 5.15902 3.296 5.17609 3.552L5.38089 10.976L5.50889 15.5584H5.66249L7.24969 10.9248L9.50249 4.4736C9.60489 4.20053 9.70729 3.97013 9.80969 3.7824C9.91209 3.59467 10.0316 3.4496 10.1681 3.3472C10.3046 3.22773 10.4668 3.1424 10.6545 3.0912C10.8422 3.04 11.0726 3.0144 11.3457 3.0144H12.8049C13.2998 3.0144 13.6156 3.12533 13.7521 3.3472C13.9057 3.552 13.9996 3.89333 14.0337 4.3712L14.4945 11.104L14.7761 15.456H14.9297L16.2353 11.104L18.5393 3.6032C18.6246 3.3472 18.71 3.18507 18.7953 3.1168C18.8977 3.04853 19.0598 3.0144 19.2817 3.0144H22.5585C22.7121 3.0144 22.8145 3.04853 22.8657 3.1168C22.934 3.168 22.9254 3.30453 22.8401 3.5264L17.0289 19.6544C16.9094 19.9787 16.79 20.2347 16.6705 20.4224C16.551 20.5931 16.4145 20.7296 16.2609 20.832C16.1244 20.9173 15.9622 20.9685 15.7745 20.9856C15.6038 21.0027 15.399 21.0112 15.1601 21.0112H13.8033C13.3084 21.0112 12.9414 20.9344 12.7025 20.7808C12.4806 20.6272 12.327 20.2347 12.2417 19.6032L11.7553 12.7936L11.4225 8.0832H11.3201Z" fill="#A5ADBC"/>
</svg>
