<svg width="16" height="16" viewBox="0 0 16 16" fill="none" xmlns="http://www.w3.org/2000/svg">
<path d="M2 7.33333H7.33333V2H2V7.33333ZM3.33333 3.33333H6V6H3.33333V3.33333ZM2 14H7.33333V8.66667H2V14ZM3.33333 10H6V12.6667H3.33333V10ZM8.66667 2V7.33333H14V2H8.66667ZM12.6667 6H10V3.33333H12.6667V6ZM12.6667 12.6667H14V14H12.6667V12.6667ZM8.66667 8.66667H10V10H8.66667V8.66667ZM10 10H11.3333V11.3333H10V10ZM8.66667 11.3333H10V12.6667H8.66667V11.3333ZM10 12.6667H11.3333V14H10V12.6667ZM11.3333 11.3333H12.6667V12.6667H11.3333V11.3333ZM11.3333 8.66667H12.6667V10H11.3333V8.66667ZM12.6667 10H14V11.3333H12.6667V10Z" fill="#FFB23E"/>
</svg>
