<svg width="24" height="24" viewBox="0 0 24 24" fill="none" xmlns="http://www.w3.org/2000/svg">
<path d="M18.9333 5.0311V4.49777C18.9333 3.6141 18.2169 2.89777 17.3333 2.89777H10.1033C10.287 3.21279 10.3999 3.57414 10.3999 3.96443V5.0311H18.9333Z" fill="#DA9021"/>
<path d="M6.13333 17.8667V15.7333H4V21.1022H20V15.7333H17.8667V17.8667H18.9333V18.9333H5.06667V17.8667H6.13333Z" fill="#DA9021"/>
<path d="M8.26662 2.89777C7.6775 2.89777 7.19995 3.37531 7.19995 3.96443V17.8667H16.8V6.09777H9.33328V3.96443C9.33328 3.37531 8.85574 2.89777 8.26662 2.89777ZM12 12.5333C12.8822 12.5333 13.6 13.251 13.6 14.1333C13.6 14.8277 13.1527 15.4142 12.5333 15.6351V16.8H11.4666V15.6351C10.8472 15.4142 10.4 14.8277 10.4 14.1333H11.4666C11.4666 14.4276 11.7057 14.6667 12 14.6667C12.2942 14.6667 12.5333 14.4276 12.5333 14.1333C12.5333 13.8391 12.2942 13.6 12 13.6C11.1177 13.6 10.4 12.8823 10.4 12C10.4 11.3056 10.8472 10.7191 11.4666 10.4982V9.29777H12.5333V10.4982C13.1527 10.7191 13.6 11.3056 13.6 12H12.5333C12.5333 11.7057 12.2942 11.4667 12 11.4667C11.7057 11.4667 11.4666 11.7057 11.4666 12C11.4666 12.2942 11.7057 12.5333 12 12.5333ZM14.6666 7.16443V8.2311H9.33328V7.16443H14.6666Z" fill="#DA9021"/>
</svg>
