<svg width="24" height="24" viewBox="0 0 24 24" fill="none" xmlns="http://www.w3.org/2000/svg">
<path d="M17.2717 19.6537H19.6147V2.0033H6.7283V4.38532H17.2717V19.6537Z" fill="#A5ADBC"/>
<path d="M8.48554 21.9967H16.1002V5.55682H4.38533V17.8965H8.48554V21.9967ZM10.2428 9.65704H14.343V10.8285H10.2428V9.65704ZM10.2428 12.5858H14.343V13.7572H10.2428V12.5858ZM10.2428 15.5145H14.343V16.686H10.2428V15.5145ZM6.55669 8.65717L7.31405 9.4145L8.65717 8.07139L9.48545 8.89967L7.31405 11.0711L5.72844 9.48545L6.55669 8.65717ZM6.55669 11.5859L7.31405 12.3432L8.65717 11.0001L9.48545 11.8284L7.31405 13.9998L5.72844 12.4142L6.55669 11.5859ZM7.31405 16.9285L5.72844 15.3429L6.55672 14.5146L7.31405 15.2719L8.65717 13.9288L9.48545 14.7571L7.31405 16.9285Z" fill="#A5ADBC"/>
<path d="M7.31405 19.068H5.31428L7.31405 21.0678V19.068Z" fill="#A5ADBC"/>
</svg>
