<svg width="24" height="24" viewBox="0 0 24 24" fill="none" xmlns="http://www.w3.org/2000/svg">
<path d="M21.5138 13.5722V10.4278L18.9344 9.91992C18.7934 9.45121 18.6061 8.99934 18.3731 8.56928L19.8124 6.41023L17.5897 4.18749L15.4307 5.62683C15.0006 5.39381 14.5488 5.20655 14.08 5.06555L13.5722 2.48615H10.4278L9.91991 5.06559C9.4512 5.20658 8.99933 5.39385 8.56928 5.62687L6.41023 4.18749L4.18748 6.41023L5.62682 8.56928C5.39381 8.99934 5.20654 9.45117 5.06554 9.91992L2.48614 10.4278V13.5722L5.06558 14.0801C5.20658 14.5488 5.39384 15.0006 5.62686 15.4307L4.18748 17.5897L6.41023 19.8125L8.56928 18.3732C8.99933 18.6062 9.45117 18.7934 9.91991 18.9344L10.4278 21.5138H13.5721L14.0801 18.9344C14.5488 18.7934 15.0006 18.6061 15.4307 18.3731L17.5897 19.8125L19.8125 17.5897L18.3731 15.4307C18.6062 15.0006 18.7934 14.5488 18.9344 14.08L21.5138 13.5722ZM12 15.9022C9.84855 15.9022 8.09782 14.1514 8.09782 12C8.09782 9.84856 9.84855 8.09783 12 8.09783C14.1514 8.09783 15.9021 9.84856 15.9021 12C15.9021 14.1514 14.1514 15.9022 12 15.9022Z" fill="#A5ADBC"/>
</svg>
